<?xml version="1.0" encoding="utf-8"?>
<!-- Generator: Adobe Illustrator 17.0.0, SVG Export Plug-In . SVG Version: 6.00 Build 0)  -->
<!DOCTYPE svg PUBLIC "-//W3C//DTD SVG 1.1//EN" "http://www.w3.org/Graphics/SVG/1.1/DTD/svg11.dtd">
<svg version="1.1" id="Logo_Master" xmlns="http://www.w3.org/2000/svg" xmlns:xlink="http://www.w3.org/1999/xlink" x="0px"
	 y="0px" width="165px" height="12px" viewBox="0 0 165 12" enable-background="new 0 0 165 12" xml:space="preserve">
<g id="bg">
</g>
<path id="Logo_3_" fill="#FFFFFF" d="M111.02,56.612l-0.044-0.012l-25.202-5.532l0.681,2.861l23.78,5.22
	c-0.934,0.441-2.529,1.187-4.418,2.029c-3.024,1.345-6.804,2.934-9.763,3.879c-1.947,0.641-3.63,0.942-4.141,0.805
	c-0.05-0.01-0.083-0.02-0.098-0.027l-0.029-0.031l-0.043-0.032c-0.004-0.003-0.013-0.01-0.022-0.022
	c-0.042-0.037-0.12-0.117-0.244-0.251c-0.251-0.272-0.684-0.783-1.389-1.674c-0.482-0.614-1.095-1.413-1.856-2.439l0.879,3.688
	c1.057,1.321,1.462,1.723,1.628,1.866c0.256,0.255,0.569,0.37,0.868,0.434c1.211,0.216,2.85-0.206,4.917-0.849
	c0.469-0.151,0.955-0.314,1.454-0.491c0.256,0.451,1.033,1.832,1.948,3.573c1.118,2.134,2.44,4.813,3.231,6.93
	c0.483,1.251,0.732,2.358,0.704,2.846c-0.215,0.126-0.468,0.17-0.72,0.103l-5.56-2.112l-1.042,3.633l-2.278-4.896l-11.807-4.489
	l3.75-1.205c2.177-0.564,3.489-2.907,2.931-5.246L84.9,47.406c-0.558-2.335-2.758-3.782-4.941-3.271l-32.806,5.429l-0.051,0.014
	c-2.2,0.554-3.52,2.902-2.963,5.248l0.009,0.063L50.81,77c0.585,2.312,2.798,3.739,4.973,3.19l0.048-0.009l3.804-1.221l2.041,8.841
	l6.076-11.451l10.673-3.434l14.029,5.336l4.615,9.909l2.107-7.354l3.15,1.195l0.04,0.011c1.806,0.555,3.734-0.548,4.325-2.473
	l6.582-18.324l0.013-0.053C113.857,59.214,112.848,57.179,111.02,56.612z M86.206,65.578c-1.636-1.424-4.544-3.089-7.189-4.507
	c-1.89-1.006-3.621-1.86-4.594-2.335c1.753-2.092,4.255-5.193,7.819-9.799L86.206,65.578z M80.588,47.214l0.049-0.009
	c0.212-0.054,0.419-0.033,0.61,0.03c-5.081,6.582-8.082,10.211-9.803,12.173c-0.885,1.014-1.433,1.589-1.747,1.898
	c-0.155,0.152-0.251,0.24-0.303,0.283c-0.011,0.012-0.021,0.019-0.027,0.023l-0.056,0.036l-0.035,0.033
	c-0.021,0.009-0.059,0.02-0.119,0.029c-0.613,0.13-2.585-0.328-4.852-1.211c-3.449-1.303-7.828-3.417-11.326-5.197
	c-2.184-1.113-4.026-2.095-5.103-2.677L80.588,47.214z M53.214,74.77l-6.175-20.52c1.677,0.906,5.133,2.741,8.873,4.548
	c1.561,0.752,3.172,1.501,4.72,2.172c-0.618,0.975-2.298,3.654-3.952,6.602c-1.037,1.852-2.063,3.803-2.807,5.518
	C53.62,73.688,53.396,74.245,53.214,74.77z M65.745,73.698l-2.999,5.659l-1.011-4.365l-6.714,2.155
	c-0.3,0.063-0.602-0.004-0.847-0.167c-0.003-0.577,0.361-1.872,1.011-3.32c1.066-2.464,2.796-5.555,4.256-8.012
	c1.188-2.008,2.195-3.592,2.524-4.11c0.579,0.238,1.149,0.462,1.693,0.671c2.41,0.888,4.321,1.489,5.769,1.312
	c0.358-0.057,0.734-0.176,1.054-0.463c0.222-0.17,0.775-0.66,2.34-2.444c0.21-0.242,0.438-0.506,0.688-0.796
	c1.029,0.497,3.547,1.726,6.094,3.13c1.659,0.913,3.321,1.898,4.567,2.782c0.621,0.441,1.141,0.857,1.491,1.209
	c0.08,0.077,0.145,0.145,0.201,0.217c-0.12,0.096-0.262,0.172-0.419,0.211l-0.033,0.01L65.745,73.698z M104.765,77.561
	c-0.129-0.448-0.293-0.93-0.481-1.442c-0.55-1.479-1.327-3.168-2.119-4.773c-1.265-2.555-2.56-4.882-3.04-5.732
	c1.333-0.497,2.722-1.055,4.07-1.621c3.229-1.357,6.222-2.751,7.672-3.44L104.765,77.561z M308.171,63.034h-0.794v-0.562h2.272
	v0.562h-0.808v2.395h-0.67V63.034z M312.488,64.297c-0.013-0.355-0.025-0.785-0.025-1.215h-0.014
	c-0.092,0.378-0.214,0.799-0.329,1.145l-0.359,1.154h-0.522l-0.315-1.146c-0.097-0.346-0.198-0.767-0.268-1.152h-0.009
	c-0.018,0.399-0.03,0.856-0.053,1.224l-0.052,1.123h-0.618l0.188-2.956h0.891l0.29,0.987c0.092,0.342,0.184,0.709,0.25,1.056h0.013
	c0.083-0.342,0.184-0.731,0.281-1.061l0.315-0.982h0.874l0.162,2.956h-0.652L312.488,64.297z M177.384,73.719l6.922,8.771h-4.531
	l-4.921-6.543l-0.87,0.934v5.608h-3.672V60.784h3.672v12.248c0.175-0.212,0.353-0.421,0.522-0.605l4.554-5.042h4.601L177.384,73.719
	z M156.593,82.125c-0.145-0.923-0.536-2.292-0.536-3.504v-5.29c0-1.477,0.045-3.029-0.904-4.249
	c-0.947-1.226-2.397-2.022-4.79-2.016c-1.966,0.004-3.768,0.513-5.097,1.292l-0.298,0.205l0.971,2.664l0.519-0.385
	c0.946-0.612,2.335-1.036,3.668-1.036h0.039l0.023,0.057c1.389,0.009,2.019,0.487,2.393,1.022c0.332,0.481,0.438,1.124,0.457,1.635
	c-2.727,0.037-4.897,0.514-6.448,1.431c-1.619,0.945-2.536,2.469-2.523,4.316c-0.001,1.141,0.432,2.286,1.291,3.142
	c0.852,0.854,2.136,1.404,3.753,1.401c1.822-0.001,3.321-0.485,4.31-1.395l0.173,1.455h3.417L156.593,82.125z M153.043,77.248
	c0,0.226,0,0.469-0.066,0.659c-0.37,1.015-1.428,2.045-3.204,2.047c-1.19-0.047-2.013-0.543-2.044-1.976
	c0.019-1.101,0.574-1.899,1.588-2.353c0.998-0.425,2.405-0.795,3.779-0.795c0.003,0-0.053,0-0.053,0V77.248z M142.235,61.835
	l0.533,20.655h-3.594l-0.52-9.101c-0.018-0.324-0.026-0.654-0.026-0.987c0.003-1.346,0.128-2.767,0.253-4.116
	c-0.465,1.344-0.968,2.751-1.539,4.223l-3.788,9.864h-2.701l-3.508-9.7c-0.468-1.334-0.895-2.605-1.28-3.826
	c0.1,1.156,0.191,2.365,0.191,3.556c0,0.397-0.009,0.798-0.03,1.193l-0.586,8.894h-3.505l0.696-20.655h4.219l3.665,9.847
	c0.66,1.855,1.214,3.557,1.687,5.172c0.492-1.589,1.09-3.292,1.795-5.184l3.818-9.835H142.235z M168.096,67.17l0.367,0.085v3.301
	l-0.524-0.049c-0.311-0.03-0.565-0.056-0.907-0.056c-1.663,0.006-2.817,1.154-3.169,2.869c-0.056,0.352-0.086,0.734-0.086,1.152
	v8.017h-3.673l0.032-10.211c0-1.658-0.032-3.082-0.122-4.379l-0.036-0.516h3.347l0.073,1.662c0.926-1.237,2.333-1.98,3.848-1.979
	C167.558,67.066,167.823,67.103,168.096,67.17z M196.716,69.6c-0.994-1.454-2.72-2.57-5.29-2.561
	c-2.296-0.005-4.207,0.899-5.506,2.379c-1.302,1.479-2.005,3.51-2.005,5.756c-0.004,2.221,0.732,4.186,2.099,5.539
	c1.363,1.351,3.33,2.157,5.702,2.157c0.008,0,0.011,0,0.018,0c2.444,0,4.173-0.556,5.185-0.988l0.384-0.186l-0.746-2.74
	l-0.495,0.188c-0.947,0.366-2.065,0.661-3.958,0.666c-2.425-0.046-4.308-1.095-4.579-3.952l10.331,0.03l0.08-0.38
	c0.074-0.351,0.103-0.785,0.106-1.328C198.039,72.804,197.717,71.057,196.716,69.6z M187.619,72.821
	c0.354-1.005,1.411-3.232,3.591-3.221c2.395,0.003,3.099,2.216,3.228,3.221H187.619z M204.671,67.385h3.89v2.918h-3.886v7.151
	c-0.004,0.831,0.133,1.428,0.37,1.758c0.232,0.324,0.525,0.496,1.185,0.509c0.72-0.002,1.09-0.054,1.44-0.157l0.571-0.168
	l0.187,2.925l-0.35,0.117c-0.576,0.191-1.454,0.373-2.558,0.373c-1.367,0.003-2.519-0.441-3.278-1.233
	c-0.875-0.935-1.177-2.319-1.181-4.037v-7.237h-2.309v-2.918h2.309V64.91l2.997-0.892l0.617-0.184L204.671,67.385z M245.785,69.6
	c-0.992-1.454-2.718-2.57-5.29-2.561c-2.296-0.005-4.202,0.899-5.504,2.379c-1.303,1.479-2.005,3.51-2.005,5.756
	c0,2.221,0.734,4.186,2.099,5.539c1.366,1.351,3.328,2.157,5.705,2.157c0.005,0,0.01,0,0.017,0c2.438,0,4.171-0.556,5.182-0.988
	l0.384-0.186l-0.744-2.74l-0.494,0.188c-0.946,0.366-2.067,0.661-3.958,0.666c-2.427-0.046-4.311-1.095-4.582-3.952l10.333,0.03
	l0.081-0.38c0.076-0.351,0.103-0.785,0.103-1.328C247.111,72.804,246.788,71.057,245.785,69.6z M236.688,72.821
	c0.356-1.005,1.409-3.232,3.592-3.221c2.397,0.003,3.099,2.216,3.231,3.221H236.688z M231.059,61.835l0.536,20.655h-3.596
	l-0.517-9.101c-0.018-0.324-0.027-0.654-0.027-0.987c0-1.346,0.126-2.767,0.251-4.116c-0.463,1.344-0.967,2.751-1.536,4.223
	l-3.788,9.864h-2.704l-3.507-9.7c-0.469-1.334-0.898-2.605-1.279-3.826c0.096,1.156,0.192,2.365,0.192,3.556
	c0,0.397-0.009,0.798-0.031,1.193l-0.586,8.894h-3.504l0.694-20.655h4.221l3.666,9.847c0.66,1.855,1.214,3.557,1.685,5.172
	c0.493-1.589,1.091-3.292,1.794-5.184l3.822-9.835H231.059z M277.504,81.971l0.045,0.519h-3.377l-0.104-1.565
	c-0.94,0.979-2.462,1.886-4.594,1.886c-1.256,0.003-2.676-0.334-3.785-1.374c-1.112-1.039-1.85-2.745-1.845-5.299v-8.753h3.67v8.285
	c-0.003,1.296,0.225,2.339,0.673,3.01c0.453,0.66,1.081,1.028,2.181,1.041c1.59,0.002,2.703-1.055,3.138-2.078
	c0.12-0.274,0.207-0.687,0.207-1.126v-9.132h3.672v10.77C277.385,79.608,277.417,80.883,277.504,81.971z M292.372,67.385h3.888
	v2.918h-3.887v7.151c-0.003,0.831,0.134,1.428,0.367,1.758c0.231,0.324,0.53,0.496,1.191,0.509c0.719-0.002,1.088-0.054,1.437-0.157
	l0.577-0.168l0.182,2.925l-0.349,0.117c-0.578,0.191-1.456,0.373-2.557,0.373c-1.364,0.003-2.521-0.441-3.28-1.233
	c-0.874-0.935-1.175-2.319-1.179-4.037v-7.237h-2.312v-2.918h2.312V64.91l2.998-0.892l0.614-0.184L292.372,67.385z M284.972,63.603
	c-0.003,1.148-0.919,2.14-2.237,2.142h-0.029c-1.273-0.002-2.175-0.995-2.175-2.142c0-1.169,0.957-2.113,2.234-2.116
	C284.049,61.489,284.969,62.445,284.972,63.603z M280.931,67.385h3.671V82.49h-3.194h-0.477V67.385z M262.069,76.634
	c0.005,1.64-0.642,3.215-1.949,4.351c-1.302,1.138-3.235,1.826-5.768,1.826c-0.004,0-0.006,0-0.01,0
	c-2.099-0.007-4.318-0.586-5.559-1.36l-0.316-0.198l0.827-2.49l0.19-0.568l0.512,0.312c1.124,0.682,2.779,1.216,4.53,1.216
	c2.613-0.04,3.851-1.17,3.872-2.883c-0.021-1.556-0.825-2.416-3.594-3.433c-3.441-1.168-5.813-3.018-5.813-6.064
	c0.007-3.385,2.999-5.821,7.203-5.826c2.169,0,3.81,0.479,4.798,1.025l0.355,0.196l-1.071,3.003l-0.5-0.291
	c-0.572-0.336-1.889-0.874-3.676-0.872c-2.647,0.033-3.41,1.393-3.437,2.475c0.007,1.534,0.942,2.267,3.823,3.351
	C260.043,71.698,262.092,73.495,262.069,76.634z M309.892,69.6c-0.994-1.454-2.721-2.57-5.291-2.561
	c-2.296-0.005-4.203,0.899-5.503,2.379c-1.305,1.479-2.009,3.51-2.009,5.756c0,2.221,0.736,4.186,2.104,5.539
	c1.362,1.351,3.324,2.157,5.701,2.157c0.007,0,0.011,0,0.017,0c2.44,0,4.174-0.556,5.184-0.988l0.383-0.186l-0.743-2.74
	l-0.495,0.188c-0.946,0.366-2.068,0.661-3.96,0.666c-2.424-0.046-4.308-1.095-4.582-3.952l10.336,0.03l0.082-0.38
	c0.074-0.351,0.103-0.785,0.103-1.328C311.217,72.804,310.893,71.057,309.892,69.6z M300.796,72.821
	c0.354-1.005,1.409-3.232,3.588-3.221c2.399,0.003,3.103,2.216,3.23,3.221H300.796z"/>
<g>
	<path fill="#FFFFFF" d="M1.881,7.187c0.386,0.237,0.951,0.436,1.545,0.436c0.881,0,1.396-0.465,1.396-1.139
		c0-0.624-0.357-0.98-1.258-1.327c-1.089-0.386-1.763-0.95-1.763-1.892c0-1.039,0.861-1.812,2.159-1.812
		c0.683,0,1.179,0.158,1.476,0.326L5.198,2.482C4.98,2.364,4.535,2.166,3.931,2.166c-0.911,0-1.257,0.545-1.257,1
		C2.673,3.79,3.079,4.097,4,4.453c1.129,0.436,1.704,0.98,1.704,1.961c0,1.03-0.763,1.921-2.337,1.921
		c-0.644,0-1.347-0.188-1.703-0.426L1.881,7.187z"/>
	<path fill="#FFFFFF" d="M11.468,5.8c0,1.773-1.228,2.546-2.387,2.546c-1.297,0-2.297-0.951-2.297-2.466
		c0-1.604,1.05-2.546,2.376-2.546C10.537,3.334,11.468,4.335,11.468,5.8z M7.665,5.85c0,1.05,0.604,1.842,1.456,1.842
		c0.832,0,1.456-0.782,1.456-1.861c0-0.812-0.406-1.842-1.436-1.842C8.11,3.988,7.665,4.938,7.665,5.85z"/>
	<path fill="#FFFFFF" d="M16.202,8.058c-0.228,0.119-0.733,0.277-1.377,0.277c-1.446,0-2.386-0.98-2.386-2.445
		c0-1.476,1.01-2.545,2.575-2.545c0.515,0,0.97,0.128,1.208,0.247l-0.198,0.674c-0.208-0.119-0.535-0.229-1.01-0.229
		c-1.099,0-1.693,0.812-1.693,1.812c0,1.109,0.713,1.793,1.664,1.793c0.495,0,0.822-0.129,1.069-0.238L16.202,8.058z"/>
	<path fill="#FFFFFF" d="M18.41,2.097c0.01,0.297-0.208,0.534-0.555,0.534c-0.307,0-0.525-0.237-0.525-0.534
		c0-0.308,0.228-0.545,0.545-0.545C18.202,1.552,18.41,1.789,18.41,2.097z M17.44,8.236V3.443h0.871v4.793H17.44z"/>
	<path fill="#FFFFFF" d="M22.629,8.236L22.56,7.632h-0.03c-0.267,0.377-0.782,0.714-1.466,0.714c-0.97,0-1.465-0.684-1.465-1.377
		c0-1.158,1.03-1.792,2.882-1.782v-0.1c0-0.396-0.109-1.108-1.089-1.108c-0.446,0-0.911,0.139-1.248,0.356L19.946,3.76
		c0.396-0.257,0.97-0.426,1.574-0.426c1.466,0,1.822,1.001,1.822,1.961v1.793c0,0.416,0.02,0.821,0.079,1.148H22.629z M22.5,5.79
		c-0.951-0.02-2.03,0.148-2.03,1.08c0,0.564,0.376,0.831,0.822,0.831c0.624,0,1.02-0.396,1.159-0.802
		c0.03-0.089,0.049-0.188,0.049-0.277V5.79z"/>
	<path fill="#FFFFFF" d="M24.967,1.205h0.871v7.031h-0.871V1.205z"/>
	<path fill="#FFFFFF" d="M35.494,5.305c-0.049-0.931-0.109-2.05-0.099-2.882h-0.03c-0.228,0.783-0.505,1.614-0.841,2.535
		l-1.179,3.238h-0.653l-1.08-3.179c-0.317-0.94-0.584-1.802-0.772-2.595h-0.02c-0.02,0.832-0.069,1.951-0.128,2.951l-0.178,2.862
		h-0.822l0.466-6.675h1.099l1.139,3.229c0.277,0.822,0.505,1.555,0.673,2.248h0.03c0.168-0.674,0.406-1.406,0.703-2.248l1.188-3.229
		h1.099l0.416,6.675h-0.842L35.494,5.305z"/>
	<path fill="#FFFFFF" d="M40.733,8.236l-0.069-0.604h-0.03c-0.268,0.377-0.782,0.714-1.466,0.714c-0.97,0-1.465-0.684-1.465-1.377
		c0-1.158,1.03-1.792,2.882-1.782v-0.1c0-0.396-0.109-1.108-1.089-1.108c-0.446,0-0.911,0.139-1.248,0.356L38.05,3.76
		c0.396-0.257,0.97-0.426,1.574-0.426c1.466,0,1.822,1.001,1.822,1.961v1.793c0,0.416,0.02,0.821,0.079,1.148H40.733z M40.604,5.79
		c-0.951-0.02-2.03,0.148-2.03,1.08c0,0.564,0.376,0.831,0.822,0.831c0.624,0,1.02-0.396,1.159-0.802
		c0.03-0.089,0.049-0.188,0.049-0.277V5.79z"/>
	<path fill="#FFFFFF" d="M43.071,4.938c0-0.564-0.01-1.05-0.04-1.495h0.763l0.03,0.94h0.04c0.218-0.644,0.743-1.05,1.327-1.05
		c0.099,0,0.168,0.011,0.248,0.03v0.821c-0.089-0.02-0.178-0.029-0.297-0.029c-0.614,0-1.049,0.466-1.168,1.119
		c-0.02,0.119-0.04,0.258-0.04,0.406v2.555h-0.861V4.938z"/>
	<path fill="#FFFFFF" d="M47.429,5.642h0.02c0.119-0.168,0.287-0.376,0.426-0.545l1.406-1.653h1.049l-1.852,1.971l2.109,2.822h-1.06
		l-1.654-2.298l-0.446,0.495v1.803h-0.861V1.205h0.861V5.642z"/>
	<path fill="#FFFFFF" d="M51.915,5.998c0.02,1.179,0.772,1.664,1.644,1.664c0.624,0,1-0.109,1.327-0.248l0.148,0.624
		c-0.307,0.139-0.832,0.297-1.594,0.297c-1.476,0-2.357-0.97-2.357-2.416c0-1.445,0.852-2.585,2.248-2.585
		c1.564,0,1.98,1.377,1.98,2.258c0,0.179-0.02,0.317-0.03,0.406H51.915z M54.47,5.374c0.01-0.555-0.228-1.416-1.208-1.416
		c-0.881,0-1.268,0.812-1.337,1.416H54.47z"/>
	<path fill="#FFFFFF" d="M57.659,2.066v1.377h1.248v0.663h-1.248v2.585c0,0.594,0.168,0.931,0.654,0.931
		c0.228,0,0.396-0.029,0.505-0.06l0.04,0.654c-0.168,0.069-0.436,0.118-0.772,0.118c-0.406,0-0.732-0.128-0.94-0.366
		c-0.248-0.257-0.337-0.684-0.337-1.248V4.106h-0.743V3.443h0.743V2.295L57.659,2.066z"/>
	<path fill="#FFFFFF" d="M61.076,2.097c0.01,0.297-0.208,0.534-0.555,0.534c-0.307,0-0.525-0.237-0.525-0.534
		c0-0.308,0.228-0.545,0.545-0.545C60.868,1.552,61.076,1.789,61.076,2.097z M60.106,8.236V3.443h0.871v4.793H60.106z"/>
	<path fill="#FFFFFF" d="M62.641,4.74c0-0.495-0.01-0.9-0.04-1.297h0.772l0.05,0.792h0.02c0.238-0.455,0.792-0.901,1.584-0.901
		c0.664,0,1.693,0.396,1.693,2.04v2.862H65.85V5.474c0-0.772-0.288-1.416-1.109-1.416c-0.574,0-1.02,0.405-1.168,0.891
		c-0.04,0.109-0.06,0.258-0.06,0.406v2.882h-0.871V4.74z"/>
	<path fill="#FFFFFF" d="M72.485,3.443c-0.02,0.347-0.04,0.732-0.04,1.317v2.782c0,1.1-0.218,1.772-0.684,2.188
		c-0.465,0.436-1.139,0.574-1.743,0.574c-0.575,0-1.208-0.139-1.594-0.396l0.218-0.664c0.317,0.198,0.812,0.377,1.406,0.377
		c0.891,0,1.545-0.466,1.545-1.674V7.414h-0.02c-0.268,0.446-0.782,0.803-1.525,0.803c-1.188,0-2.04-1.011-2.04-2.337
		c0-1.625,1.06-2.546,2.159-2.546c0.832,0,1.288,0.437,1.495,0.832h0.02l0.04-0.723H72.485z M71.584,5.335
		c0-0.148-0.01-0.277-0.049-0.396c-0.159-0.505-0.584-0.921-1.218-0.921c-0.832,0-1.426,0.703-1.426,1.812
		c0,0.94,0.475,1.723,1.416,1.723c0.535,0,1.02-0.336,1.208-0.891c0.05-0.148,0.069-0.317,0.069-0.466V5.335z"/>
	<path fill="#FFFFFF" d="M77.477,2.066v1.377h1.248v0.663h-1.248v2.585c0,0.594,0.168,0.931,0.654,0.931
		c0.228,0,0.396-0.029,0.505-0.06l0.04,0.654c-0.168,0.069-0.436,0.118-0.772,0.118c-0.406,0-0.732-0.128-0.94-0.366
		c-0.248-0.257-0.337-0.684-0.337-1.248V4.106h-0.743V3.443h0.743V2.295L77.477,2.066z"/>
	<path fill="#FFFFFF" d="M79.923,1.205h0.871v2.991h0.02c0.139-0.248,0.356-0.466,0.624-0.614c0.257-0.148,0.564-0.248,0.891-0.248
		c0.644,0,1.673,0.396,1.673,2.051v2.852h-0.871V5.483c0-0.772-0.288-1.426-1.109-1.426c-0.564,0-1.01,0.396-1.168,0.871
		c-0.049,0.119-0.06,0.248-0.06,0.416v2.892h-0.871V1.205z"/>
	<path fill="#FFFFFF" d="M88.292,8.236l-0.069-0.604h-0.03c-0.268,0.377-0.782,0.714-1.466,0.714c-0.97,0-1.465-0.684-1.465-1.377
		c0-1.158,1.03-1.792,2.882-1.782v-0.1c0-0.396-0.109-1.108-1.089-1.108c-0.446,0-0.911,0.139-1.248,0.356L85.608,3.76
		c0.396-0.257,0.97-0.426,1.574-0.426c1.466,0,1.822,1.001,1.822,1.961v1.793c0,0.416,0.02,0.821,0.079,1.148H88.292z M88.163,5.79
		c-0.951-0.02-2.03,0.148-2.03,1.08c0,0.564,0.376,0.831,0.822,0.831c0.624,0,1.02-0.396,1.159-0.802
		c0.03-0.089,0.049-0.188,0.049-0.277V5.79z"/>
	<path fill="#FFFFFF" d="M91.639,2.066v1.377h1.248v0.663h-1.248v2.585c0,0.594,0.168,0.931,0.654,0.931
		c0.228,0,0.396-0.029,0.505-0.06l0.04,0.654c-0.168,0.069-0.436,0.118-0.772,0.118c-0.406,0-0.732-0.128-0.94-0.366
		c-0.248-0.257-0.337-0.684-0.337-1.248V4.106h-0.743V3.443h0.743V2.295L91.639,2.066z"/>
	<path fill="#FFFFFF" d="M102.058,5.305c-0.049-0.931-0.109-2.05-0.099-2.882h-0.03c-0.228,0.783-0.505,1.614-0.841,2.535
		l-1.179,3.238h-0.653l-1.08-3.179c-0.317-0.94-0.584-1.802-0.772-2.595h-0.02c-0.02,0.832-0.069,1.951-0.128,2.951l-0.178,2.862
		h-0.822l0.466-6.675h1.099l1.139,3.229c0.277,0.822,0.505,1.555,0.673,2.248h0.03c0.168-0.674,0.406-1.406,0.703-2.248l1.188-3.229
		h1.099l0.416,6.675h-0.842L102.058,5.305z"/>
	<path fill="#FFFFFF" d="M105.128,5.998c0.02,1.179,0.772,1.664,1.644,1.664c0.624,0,1-0.109,1.327-0.248l0.148,0.624
		c-0.307,0.139-0.832,0.297-1.594,0.297c-1.476,0-2.357-0.97-2.357-2.416c0-1.445,0.852-2.585,2.248-2.585
		c1.564,0,1.98,1.377,1.98,2.258c0,0.179-0.02,0.317-0.03,0.406H105.128z M107.684,5.374c0.01-0.555-0.228-1.416-1.208-1.416
		c-0.881,0-1.268,0.812-1.337,1.416H107.684z"/>
	<path fill="#FFFFFF" d="M112.477,8.236l-0.069-0.604h-0.03c-0.267,0.377-0.782,0.714-1.466,0.714c-0.97,0-1.465-0.684-1.465-1.377
		c0-1.158,1.03-1.792,2.882-1.782v-0.1c0-0.396-0.109-1.108-1.089-1.108c-0.446,0-0.911,0.139-1.248,0.356l-0.198-0.575
		c0.396-0.257,0.97-0.426,1.574-0.426c1.466,0,1.822,1.001,1.822,1.961v1.793c0,0.416,0.02,0.821,0.079,1.148H112.477z
		 M112.348,5.79c-0.951-0.02-2.03,0.148-2.03,1.08c0,0.564,0.376,0.831,0.822,0.831c0.624,0,1.02-0.396,1.159-0.802
		c0.03-0.089,0.049-0.188,0.049-0.277V5.79z"/>
	<path fill="#FFFFFF" d="M114.815,4.74c0-0.495-0.01-0.9-0.04-1.297h0.772l0.05,0.792h0.02c0.238-0.455,0.792-0.901,1.584-0.901
		c0.664,0,1.693,0.396,1.693,2.04v2.862h-0.871V5.474c0-0.772-0.288-1.416-1.109-1.416c-0.574,0-1.02,0.405-1.168,0.891
		c-0.04,0.109-0.06,0.258-0.06,0.406v2.882h-0.871V4.74z"/>
	<path fill="#FFFFFF" d="M120.41,7.345c0.257,0.169,0.713,0.347,1.149,0.347c0.634,0,0.931-0.316,0.931-0.713
		c0-0.416-0.248-0.644-0.891-0.881c-0.862-0.308-1.268-0.782-1.268-1.357c0-0.772,0.624-1.406,1.654-1.406
		c0.485,0,0.911,0.139,1.178,0.298l-0.218,0.634c-0.188-0.119-0.535-0.277-0.98-0.277c-0.515,0-0.802,0.297-0.802,0.653
		c0,0.396,0.287,0.574,0.911,0.812c0.832,0.317,1.258,0.733,1.258,1.446c0,0.842-0.653,1.436-1.792,1.436
		c-0.525,0-1.01-0.128-1.347-0.326L120.41,7.345z"/>
	<path fill="#FFFFFF" d="M127.016,1.65c0.376-0.079,0.971-0.138,1.575-0.138c0.862,0,1.416,0.148,1.832,0.484
		c0.347,0.258,0.555,0.654,0.555,1.179c0,0.644-0.426,1.208-1.129,1.466v0.02c0.634,0.158,1.376,0.684,1.376,1.674
		c0,0.574-0.228,1.01-0.564,1.337c-0.465,0.426-1.218,0.624-2.308,0.624c-0.594,0-1.049-0.04-1.337-0.079V1.65z M127.877,4.384
		h0.782c0.911,0,1.446-0.475,1.446-1.119c0-0.782-0.594-1.089-1.465-1.089c-0.396,0-0.624,0.029-0.763,0.06V4.384z M127.877,7.583
		c0.168,0.029,0.416,0.039,0.723,0.039c0.892,0,1.713-0.326,1.713-1.297c0-0.911-0.782-1.287-1.723-1.287h-0.713V7.583z"/>
	<path fill="#FFFFFF" d="M136.583,6.929c0,0.495,0.01,0.932,0.04,1.308h-0.772l-0.05-0.782h-0.02
		c-0.228,0.386-0.733,0.892-1.584,0.892c-0.753,0-1.654-0.416-1.654-2.1V3.443h0.871v2.654c0,0.911,0.277,1.524,1.07,1.524
		c0.584,0,0.99-0.405,1.148-0.792c0.05-0.129,0.08-0.287,0.08-0.445V3.443h0.871V6.929z"/>
	<path fill="#FFFFFF" d="M138.128,7.345c0.257,0.169,0.713,0.347,1.149,0.347c0.634,0,0.931-0.316,0.931-0.713
		c0-0.416-0.248-0.644-0.891-0.881c-0.862-0.308-1.268-0.782-1.268-1.357c0-0.772,0.624-1.406,1.654-1.406
		c0.485,0,0.911,0.139,1.178,0.298l-0.218,0.634c-0.188-0.119-0.535-0.277-0.98-0.277c-0.515,0-0.802,0.297-0.802,0.653
		c0,0.396,0.287,0.574,0.911,0.812c0.832,0.317,1.258,0.733,1.258,1.446c0,0.842-0.653,1.436-1.792,1.436
		c-0.525,0-1.01-0.128-1.347-0.326L138.128,7.345z"/>
	<path fill="#FFFFFF" d="M143.357,2.097c0.01,0.297-0.208,0.534-0.555,0.534c-0.307,0-0.525-0.237-0.525-0.534
		c0-0.308,0.228-0.545,0.545-0.545C143.149,1.552,143.357,1.789,143.357,2.097z M142.387,8.236V3.443h0.871v4.793H142.387z"/>
	<path fill="#FFFFFF" d="M144.922,4.74c0-0.495-0.01-0.9-0.04-1.297h0.772l0.05,0.792h0.02c0.238-0.455,0.792-0.901,1.584-0.901
		c0.664,0,1.693,0.396,1.693,2.04v2.862h-0.871V5.474c0-0.772-0.288-1.416-1.109-1.416c-0.574,0-1.02,0.405-1.168,0.891
		c-0.04,0.109-0.06,0.258-0.06,0.406v2.882h-0.871V4.74z"/>
	<path fill="#FFFFFF" d="M151.122,5.998c0.02,1.179,0.772,1.664,1.644,1.664c0.624,0,1-0.109,1.327-0.248l0.148,0.624
		c-0.307,0.139-0.832,0.297-1.594,0.297c-1.476,0-2.357-0.97-2.357-2.416c0-1.445,0.852-2.585,2.248-2.585
		c1.564,0,1.98,1.377,1.98,2.258c0,0.179-0.02,0.317-0.03,0.406H151.122z M153.677,5.374c0.01-0.555-0.228-1.416-1.208-1.416
		c-0.881,0-1.268,0.812-1.337,1.416H153.677z"/>
	<path fill="#FFFFFF" d="M155.698,7.345c0.257,0.169,0.713,0.347,1.149,0.347c0.634,0,0.931-0.316,0.931-0.713
		c0-0.416-0.248-0.644-0.891-0.881c-0.862-0.308-1.268-0.782-1.268-1.357c0-0.772,0.624-1.406,1.654-1.406
		c0.485,0,0.911,0.139,1.178,0.298l-0.218,0.634c-0.188-0.119-0.535-0.277-0.98-0.277c-0.515,0-0.802,0.297-0.802,0.653
		c0,0.396,0.287,0.574,0.911,0.812c0.832,0.317,1.258,0.733,1.258,1.446c0,0.842-0.653,1.436-1.792,1.436
		c-0.525,0-1.01-0.128-1.347-0.326L155.698,7.345z"/>
	<path fill="#FFFFFF" d="M159.837,7.345c0.257,0.169,0.713,0.347,1.149,0.347c0.634,0,0.931-0.316,0.931-0.713
		c0-0.416-0.248-0.644-0.891-0.881c-0.862-0.308-1.268-0.782-1.268-1.357c0-0.772,0.624-1.406,1.654-1.406
		c0.485,0,0.911,0.139,1.178,0.298l-0.218,0.634c-0.188-0.119-0.535-0.277-0.98-0.277c-0.515,0-0.802,0.297-0.802,0.653
		c0,0.396,0.287,0.574,0.911,0.812c0.832,0.317,1.258,0.733,1.258,1.446c0,0.842-0.653,1.436-1.792,1.436
		c-0.525,0-1.01-0.128-1.347-0.326L159.837,7.345z"/>
</g>
<g>
</g>
<g>
</g>
<g>
</g>
<g>
</g>
<g>
</g>
<g>
</g>
<g>
</g>
<g>
</g>
<g>
</g>
<g>
</g>
<g>
</g>
<g>
</g>
<g>
</g>
<g>
</g>
<g>
</g>
</svg>
