<?xml version="1.0" encoding="utf-8"?>
<!-- Generator: Adobe Illustrator 17.0.0, SVG Export Plug-In . SVG Version: 6.00 Build 0)  -->
<!DOCTYPE svg PUBLIC "-//W3C//DTD SVG 1.1//EN" "http://www.w3.org/Graphics/SVG/1.1/DTD/svg11.dtd">
<svg version="1.1" id="Logo_Master" xmlns="http://www.w3.org/2000/svg" xmlns:xlink="http://www.w3.org/1999/xlink" x="0px"
	 y="0px" width="275px" height="50px" viewBox="0 0 275 50" enable-background="new 0 0 275 50" xml:space="preserve">
<g id="bg">
</g>
<path id="Logo_3_" fill="#FFFFFF" d="M70.02,15.612l-0.044-0.012l-25.202-5.532l0.681,2.861l23.78,5.22
	c-0.934,0.441-2.529,1.186-4.418,2.029c-3.024,1.345-6.804,2.934-9.763,3.879c-1.947,0.641-3.63,0.942-4.141,0.805
	c-0.05-0.01-0.083-0.02-0.098-0.027l-0.029-0.031l-0.043-0.032c-0.004-0.003-0.013-0.01-0.022-0.022
	c-0.042-0.037-0.12-0.117-0.244-0.251c-0.25-0.272-0.684-0.783-1.389-1.674c-0.482-0.614-1.095-1.413-1.856-2.439l0.879,3.688
	c1.057,1.321,1.462,1.723,1.627,1.866c0.256,0.255,0.569,0.37,0.868,0.434c1.211,0.216,2.85-0.206,4.917-0.849
	c0.469-0.151,0.955-0.314,1.454-0.491c0.256,0.451,1.033,1.832,1.948,3.573c1.118,2.134,2.44,4.813,3.231,6.93
	c0.483,1.251,0.733,2.358,0.704,2.846c-0.215,0.126-0.468,0.17-0.72,0.102l-5.561-2.112l-1.042,3.633l-2.278-4.896l-11.807-4.489
	l3.75-1.205c2.177-0.564,3.489-2.907,2.931-5.246L43.9,6.406c-0.558-2.335-2.758-3.782-4.941-3.272L6.153,8.564L6.102,8.577
	c-2.2,0.554-3.52,2.902-2.963,5.248l0.009,0.063L9.81,36c0.585,2.312,2.798,3.739,4.973,3.19l0.048-0.009l3.804-1.221l2.04,8.841
	l6.076-11.451l10.673-3.434l14.029,5.336l4.615,9.909l2.107-7.355l3.15,1.195l0.04,0.011c1.806,0.555,3.734-0.548,4.325-2.473
	l6.582-18.324l0.013-0.053C72.857,18.214,71.848,16.179,70.02,15.612z M45.206,24.578c-1.636-1.424-4.544-3.089-7.189-4.507
	c-1.89-1.006-3.621-1.86-4.594-2.335c1.753-2.092,4.255-5.193,7.819-9.799L45.206,24.578z M39.588,6.214l0.049-0.009
	c0.212-0.054,0.418-0.033,0.61,0.03c-5.081,6.582-8.082,10.211-9.803,12.173c-0.885,1.014-1.433,1.589-1.748,1.898
	c-0.155,0.152-0.25,0.24-0.303,0.283c-0.011,0.012-0.021,0.019-0.027,0.024l-0.056,0.036l-0.035,0.033
	c-0.02,0.009-0.059,0.02-0.119,0.029c-0.613,0.13-2.585-0.328-4.852-1.211c-3.449-1.303-7.828-3.417-11.326-5.197
	c-2.184-1.113-4.026-2.095-5.103-2.677L39.588,6.214z M12.214,33.77L6.039,13.25c1.677,0.906,5.133,2.741,8.874,4.548
	c1.561,0.752,3.172,1.501,4.72,2.172c-0.618,0.975-2.298,3.654-3.952,6.602c-1.037,1.852-2.063,3.803-2.807,5.518
	C12.62,32.688,12.396,33.245,12.214,33.77z M24.745,32.698l-2.998,5.659l-1.011-4.365l-6.714,2.155
	c-0.3,0.063-0.602-0.004-0.847-0.167c-0.003-0.577,0.361-1.872,1.011-3.32c1.066-2.464,2.796-5.555,4.256-8.012
	c1.189-2.008,2.195-3.592,2.524-4.11c0.579,0.238,1.149,0.462,1.693,0.671c2.41,0.888,4.321,1.489,5.769,1.312
	c0.358-0.057,0.734-0.176,1.054-0.463c0.222-0.17,0.775-0.66,2.34-2.444c0.21-0.242,0.438-0.506,0.688-0.796
	c1.029,0.497,3.547,1.726,6.094,3.13c1.659,0.913,3.321,1.898,4.567,2.782c0.621,0.441,1.141,0.857,1.491,1.209
	c0.08,0.077,0.145,0.145,0.201,0.217c-0.12,0.096-0.262,0.172-0.419,0.211l-0.033,0.01L24.745,32.698z M63.765,36.561
	c-0.129-0.448-0.293-0.93-0.481-1.442c-0.55-1.479-1.327-3.168-2.119-4.773c-1.265-2.555-2.56-4.882-3.04-5.732
	c1.333-0.497,2.722-1.055,4.07-1.621c3.229-1.357,6.222-2.751,7.672-3.44L63.765,36.561z M267.171,22.034h-0.794v-0.562h2.272v0.562
	h-0.808v2.394h-0.67V22.034z M271.488,23.297c-0.013-0.355-0.025-0.785-0.025-1.215h-0.014c-0.092,0.378-0.214,0.799-0.329,1.145
	l-0.359,1.154h-0.522l-0.315-1.146c-0.097-0.346-0.198-0.767-0.268-1.152h-0.009c-0.018,0.399-0.03,0.856-0.053,1.224l-0.052,1.123
	h-0.618l0.188-2.956h0.891l0.29,0.987c0.092,0.342,0.184,0.709,0.25,1.056h0.013c0.083-0.342,0.184-0.731,0.281-1.061l0.315-0.982
	h0.874l0.162,2.956h-0.652L271.488,23.297z M136.384,32.719l6.922,8.771h-4.531l-4.921-6.543l-0.87,0.935v5.608h-3.672V19.784h3.672
	v12.248c0.175-0.212,0.353-0.421,0.522-0.605l4.554-5.042h4.601L136.384,32.719z M115.593,41.125
	c-0.146-0.923-0.536-2.292-0.536-3.504v-5.29c0-1.477,0.045-3.029-0.904-4.249c-0.947-1.226-2.397-2.022-4.789-2.016
	c-1.966,0.004-3.768,0.513-5.097,1.292l-0.298,0.205l0.971,2.664l0.519-0.385c0.946-0.612,2.335-1.036,3.668-1.036h0.039
	l0.023,0.057c1.389,0.009,2.019,0.487,2.393,1.021c0.332,0.481,0.438,1.124,0.457,1.635c-2.727,0.037-4.897,0.514-6.448,1.431
	c-1.619,0.945-2.536,2.469-2.523,4.316c-0.001,1.141,0.432,2.286,1.291,3.142c0.853,0.854,2.136,1.404,3.753,1.401
	c1.822-0.001,3.321-0.485,4.31-1.395l0.173,1.455h3.417L115.593,41.125z M112.043,36.248c0,0.226,0,0.469-0.066,0.659
	c-0.37,1.015-1.428,2.045-3.204,2.047c-1.19-0.047-2.013-0.543-2.044-1.976c0.019-1.101,0.574-1.899,1.588-2.353
	c0.999-0.425,2.405-0.795,3.779-0.795c0.003,0-0.053,0-0.053,0V36.248z M101.235,20.835l0.533,20.655h-3.594l-0.521-9.101
	c-0.018-0.324-0.026-0.654-0.026-0.987c0.002-1.346,0.128-2.767,0.253-4.116c-0.465,1.344-0.968,2.751-1.539,4.223l-3.788,9.864
	h-2.701l-3.508-9.7c-0.468-1.334-0.895-2.605-1.28-3.826c0.1,1.156,0.191,2.365,0.191,3.556c0,0.398-0.009,0.798-0.03,1.193
	l-0.586,8.895h-3.505l0.696-20.655h4.219l3.665,9.847c0.66,1.856,1.214,3.557,1.687,5.172c0.492-1.589,1.09-3.292,1.795-5.184
	l3.818-9.835H101.235z M127.096,26.17l0.367,0.085v3.301l-0.524-0.049c-0.311-0.03-0.565-0.056-0.907-0.056
	c-1.663,0.006-2.817,1.154-3.169,2.869c-0.056,0.352-0.086,0.734-0.086,1.152v8.018h-3.673l0.032-10.211
	c0-1.658-0.032-3.082-0.122-4.379l-0.036-0.516h3.347l0.073,1.662c0.926-1.237,2.333-1.98,3.848-1.979
	C126.558,26.066,126.823,26.103,127.096,26.17z M155.716,28.6c-0.994-1.454-2.72-2.57-5.29-2.56
	c-2.296-0.005-4.207,0.899-5.506,2.379c-1.302,1.479-2.005,3.51-2.005,5.756c-0.004,2.221,0.732,4.186,2.099,5.539
	c1.363,1.351,3.33,2.157,5.702,2.157c0.008,0,0.011,0,0.018,0c2.444,0,4.173-0.556,5.185-0.988l0.384-0.186l-0.746-2.74
	l-0.495,0.188c-0.947,0.366-2.065,0.661-3.958,0.666c-2.425-0.046-4.308-1.095-4.579-3.952l10.331,0.03l0.08-0.38
	c0.074-0.351,0.103-0.785,0.106-1.328C157.039,31.804,156.717,30.057,155.716,28.6z M146.619,31.821
	c0.354-1.005,1.411-3.232,3.591-3.221c2.395,0.003,3.099,2.216,3.228,3.221H146.619z M163.671,26.385h3.89v2.918h-3.886v7.151
	c-0.004,0.831,0.133,1.428,0.37,1.758c0.232,0.324,0.525,0.496,1.185,0.509c0.72-0.002,1.09-0.054,1.44-0.157l0.571-0.168
	l0.187,2.925l-0.35,0.117c-0.576,0.191-1.454,0.373-2.558,0.373c-1.367,0.003-2.519-0.441-3.278-1.233
	c-0.875-0.934-1.177-2.319-1.181-4.037v-7.237h-2.309v-2.918h2.309V23.91l2.997-0.892l0.617-0.184L163.671,26.385z M204.785,28.6
	c-0.992-1.454-2.718-2.57-5.29-2.56c-2.296-0.005-4.202,0.899-5.504,2.379c-1.303,1.479-2.005,3.51-2.005,5.756
	c0,2.221,0.734,4.186,2.099,5.539c1.366,1.351,3.328,2.157,5.705,2.157c0.005,0,0.01,0,0.017,0c2.438,0,4.171-0.556,5.182-0.988
	l0.384-0.186l-0.744-2.74l-0.494,0.188c-0.946,0.366-2.067,0.661-3.958,0.666c-2.427-0.046-4.311-1.095-4.582-3.952l10.333,0.03
	l0.081-0.38c0.076-0.351,0.103-0.785,0.103-1.328C206.111,31.804,205.788,30.057,204.785,28.6z M195.688,31.821
	c0.356-1.005,1.409-3.232,3.592-3.221c2.397,0.003,3.099,2.216,3.231,3.221H195.688z M190.059,20.835l0.536,20.655h-3.596
	l-0.517-9.101c-0.018-0.324-0.027-0.654-0.027-0.987c0-1.346,0.126-2.767,0.251-4.116c-0.463,1.344-0.967,2.751-1.536,4.223
	l-3.788,9.864h-2.704l-3.507-9.7c-0.469-1.334-0.898-2.605-1.279-3.826c0.096,1.156,0.192,2.365,0.192,3.556
	c0,0.398-0.009,0.798-0.031,1.193l-0.586,8.895h-3.504l0.694-20.655h4.221l3.666,9.847c0.66,1.856,1.214,3.557,1.685,5.172
	c0.493-1.589,1.091-3.292,1.794-5.184l3.822-9.835H190.059z M236.504,40.971l0.045,0.52h-3.377l-0.104-1.565
	c-0.94,0.979-2.462,1.886-4.594,1.886c-1.256,0.003-2.676-0.334-3.785-1.374c-1.112-1.039-1.85-2.745-1.845-5.299v-8.753h3.67v8.285
	c-0.003,1.296,0.225,2.339,0.673,3.01c0.453,0.66,1.081,1.028,2.181,1.041c1.59,0.002,2.703-1.055,3.138-2.078
	c0.12-0.274,0.208-0.687,0.208-1.126v-9.132h3.672v10.771C236.385,38.608,236.416,39.883,236.504,40.971z M251.372,26.385h3.888
	v2.918h-3.887v7.151c-0.003,0.831,0.134,1.428,0.367,1.758c0.231,0.324,0.53,0.496,1.191,0.509c0.719-0.002,1.088-0.054,1.437-0.157
	l0.577-0.168l0.182,2.925l-0.349,0.117c-0.578,0.191-1.456,0.373-2.557,0.373c-1.364,0.003-2.521-0.441-3.28-1.233
	c-0.874-0.934-1.175-2.319-1.179-4.037v-7.237h-2.312v-2.918h2.312V23.91l2.998-0.892l0.614-0.184L251.372,26.385z M243.972,22.603
	c-0.003,1.148-0.919,2.14-2.237,2.142h-0.029c-1.273-0.002-2.175-0.995-2.175-2.142c0-1.169,0.958-2.113,2.234-2.116
	C243.049,20.489,243.969,21.445,243.972,22.603z M239.931,26.385h3.671V41.49h-3.194h-0.477V26.385z M221.069,35.634
	c0.005,1.64-0.642,3.215-1.949,4.351c-1.302,1.138-3.235,1.826-5.768,1.826c-0.004,0-0.006,0-0.01,0
	c-2.099-0.007-4.318-0.586-5.559-1.36l-0.316-0.198l0.827-2.49l0.19-0.568l0.512,0.312c1.124,0.682,2.779,1.216,4.53,1.216
	c2.613-0.04,3.852-1.17,3.872-2.883c-0.02-1.556-0.825-2.416-3.594-3.433c-3.441-1.168-5.813-3.018-5.813-6.065
	c0.007-3.385,2.999-5.821,7.203-5.826c2.169,0,3.81,0.479,4.798,1.024l0.355,0.196l-1.071,3.003l-0.499-0.291
	c-0.572-0.336-1.889-0.874-3.676-0.872c-2.647,0.033-3.41,1.393-3.437,2.475c0.007,1.534,0.942,2.267,3.823,3.351
	C219.043,30.698,221.092,32.495,221.069,35.634z M268.892,28.6c-0.994-1.454-2.721-2.57-5.291-2.56
	c-2.296-0.005-4.203,0.899-5.503,2.379c-1.305,1.479-2.009,3.51-2.009,5.756c0,2.221,0.736,4.186,2.104,5.539
	c1.362,1.351,3.324,2.157,5.701,2.157c0.007,0,0.011,0,0.017,0c2.44,0,4.174-0.556,5.184-0.988l0.383-0.186l-0.743-2.74
	l-0.495,0.188c-0.946,0.366-2.068,0.661-3.96,0.666c-2.424-0.046-4.308-1.095-4.582-3.952l10.336,0.03l0.082-0.38
	c0.074-0.351,0.103-0.785,0.103-1.328C270.217,31.804,269.893,30.057,268.892,28.6z M259.796,31.821
	c0.354-1.005,1.409-3.232,3.588-3.221c2.399,0.003,3.103,2.216,3.23,3.221H259.796z"/>
<g>
</g>
<g>
</g>
<g>
</g>
<g>
</g>
<g>
</g>
<g>
</g>
<g>
</g>
<g>
</g>
<g>
</g>
<g>
</g>
<g>
</g>
<g>
</g>
<g>
</g>
<g>
</g>
<g>
</g>
</svg>
